<?xml version="1.0" encoding="utf-8"?>
<!-- Generator: Adobe Illustrator 22.1.0, SVG Export Plug-In . SVG Version: 6.00 Build 0)  -->
<svg version="1.1" id="Capa_1" xmlns="http://www.w3.org/2000/svg" xmlns:xlink="http://www.w3.org/1999/xlink" x="0px" y="0px"
	 viewBox="0 0 50 50" style="enable-background:new 0 0 50 50;" xml:space="preserve">
<style type="text/css">
	.st0{fill:#4DBC4B;}
</style>
<g>
	<path class="st0" d="M39.1,19.4h-3.7l-3.1-6.6c-0.7-1.6-2.6-2.3-4.2-1.5c-1.6,0.7-2.3,2.6-1.5,4.2l1.8,3.9h-5.6l1.8-3.9
		c0.4-0.8,0.4-1.6,0.1-2.4c-1-2.7-4.7-2.8-5.9-0.3l-3.1,6.6h-3.7c-1.6,0-2.8,1.5-2.4,3.1l3.3,13.7c0.4,1.6,1.8,2.6,3.4,2.6h18.7
		c1.6,0,3-1.1,3.4-2.6l3.3-13.7C41.9,20.9,40.7,19.4,39.1,19.4z M29.4,13c0.4,0,0.9,0.2,1.1,0.7l2.7,5.7h-2.6l-2.2-4.8
		C28,13.9,28.5,13,29.4,13z M20.6,13.7c0.3-0.6,1-0.8,1.5-0.6s0.8,1,0.6,1.5l-2.2,4.8h-2.6L20.6,13.7z M39.6,22l-3.3,13.7
		c-0.2,0.6-0.7,1.1-1.4,1.1H16.2c-0.7,0-1.2-0.4-1.4-1.1L11.4,22c-0.1-0.3,0.2-0.6,0.5-0.6h27.2C39.4,21.4,39.6,21.7,39.6,22z"/>
	<path class="st0" d="M25.5,24.5c-0.6,0-1,0.5-1,1v7.2c0,0.6,0.5,1,1,1s1-0.5,1-1v-7.2C26.5,25,26.1,24.5,25.5,24.5z"/>
	<path class="st0" d="M32.5,24.5c-0.5-0.1-1.1,0.2-1.2,0.8l-1.6,7.2c-0.1,0.6,0.3,1.2,1,1.2c0.5,0,0.9-0.3,1-0.8l1.6-7.2
		C33.4,25.2,33,24.7,32.5,24.5z"/>
	<path class="st0" d="M19.7,25.3c-0.1-0.5-0.7-0.9-1.2-0.8c-0.5,0.1-0.9,0.7-0.8,1.2l1.6,7.2c0.1,0.5,0.5,0.8,1,0.8
		c0.6,0,1.1-0.6,1-1.2L19.7,25.3z"/>
</g>
</svg>
