<?xml version="1.0" encoding="utf-8"?>
<!-- Generator: Adobe Illustrator 22.1.0, SVG Export Plug-In . SVG Version: 6.00 Build 0)  -->
<svg version="1.1" id="Capa_1" xmlns="http://www.w3.org/2000/svg" xmlns:xlink="http://www.w3.org/1999/xlink" x="0px" y="0px"
	 viewBox="0 0 40 40" style="enable-background:new 0 0 40 40;" xml:space="preserve">
<style type="text/css">
	.st0{fill:#FFFFFF;}
</style>
<g>
	<path class="st0" d="M34.1,14.4h-3.7l-3.1-6.6c-0.7-1.6-2.6-2.3-4.2-1.5c-1.6,0.7-2.3,2.6-1.5,4.2l1.8,3.9h-5.6l1.8-3.9
		c0.4-0.8,0.4-1.6,0.1-2.4c-1-2.7-4.7-2.8-5.9-0.3l-3.1,6.6H6.9c-1.6,0-2.8,1.5-2.4,3.1l3.3,13.7c0.4,1.6,1.8,2.6,3.4,2.6h18.7
		c1.6,0,3-1.1,3.4-2.6l3.3-13.7C36.9,15.9,35.7,14.4,34.1,14.4z M24.4,8c0.4,0,0.9,0.2,1.1,0.7l2.7,5.7h-2.6l-2.2-4.8
		C23,8.9,23.5,8,24.4,8z M15.6,8.7c0.3-0.6,1-0.8,1.5-0.6s0.8,1,0.6,1.5l-2.2,4.8h-2.6L15.6,8.7z M34.6,17l-3.3,13.7
		c-0.2,0.6-0.7,1.1-1.4,1.1H11.2c-0.7,0-1.2-0.4-1.4-1.1L6.4,17c-0.1-0.3,0.2-0.6,0.5-0.6h27.2C34.4,16.4,34.6,16.7,34.6,17z"/>
	<path class="st0" d="M20.5,19.5c-0.6,0-1,0.5-1,1v7.2c0,0.6,0.5,1,1,1s1-0.5,1-1v-7.2C21.5,20,21.1,19.5,20.5,19.5z"/>
	<path class="st0" d="M27.5,19.5c-0.5-0.1-1.1,0.2-1.2,0.8l-1.6,7.2c-0.1,0.6,0.3,1.2,1,1.2c0.5,0,0.9-0.3,1-0.8l1.6-7.2
		C28.4,20.2,28,19.7,27.5,19.5z"/>
	<path class="st0" d="M14.7,20.3c-0.1-0.5-0.7-0.9-1.2-0.8c-0.5,0.1-0.9,0.7-0.8,1.2l1.6,7.2c0.1,0.5,0.5,0.8,1,0.8
		c0.6,0,1.1-0.6,1-1.2L14.7,20.3z"/>
</g>
</svg>
