<?xml version="1.0" encoding="utf-8"?>
<!-- Generator: Adobe Illustrator 22.1.0, SVG Export Plug-In . SVG Version: 6.00 Build 0)  -->
<svg version="1.1" id="Capa_1" xmlns="http://www.w3.org/2000/svg" xmlns:xlink="http://www.w3.org/1999/xlink" x="0px" y="0px"
	 viewBox="0 0 100 100" style="enable-background:new 0 0 100 100;" xml:space="preserve">
<style type="text/css">
	.st0{fill:#4DBC4B;}
</style>
<g>
	<path class="st0" d="M75.1,39c-0.5-0.4-1.3-0.6-1.9-0.5c-14.7,2.9-25.3,15.9-25.3,30.9v6.6H21.7c-1.3,0-2.3,1-2.3,2.3
		s1,2.3,2.3,2.3h28.4c1.3,0,2.3-1,2.3-2.3v-2.8c5.8-1.5,11.1-4.7,15.2-9.2c0.6-0.6,0.8-1.5,0.5-2.3l-0.7-2.1h2.2
		c0.8,0,1.6-0.4,2-1.2c2.7-4.8,4.2-10.2,4.2-15.7v-4.2C75.9,40.1,75.6,39.4,75.1,39z M71.2,45c0,4.2-1,8.4-2.9,12.2h-4.1
		c-0.8,0-1.5,0.4-1.9,1c-0.4,0.6-0.6,1.4-0.3,2.1l1.3,3.8c-3,3-6.7,5.2-10.8,6.5v-1.2c0-11.8,7.7-22.1,18.8-25.6V45z"/>
</g>
<g>
	<path class="st0" d="M83,10H17c-3.9,0-7,3.2-7,7V83c0,3.9,3.2,7,7,7H83c3.9,0,7-3.2,7-7V17C90,13.2,86.8,10,83,10z M17,14.7H83
		c1.3,0,2.3,1.1,2.3,2.3v11.7H14.7V17C14.7,15.7,15.7,14.7,17,14.7z M83,85.3H17c-1.3,0-2.3-1.1-2.3-2.3V33.4h70.6V83
		C85.3,84.3,84.3,85.3,83,85.3z"/>
</g>
<g>
	<circle class="st0" cx="21.7" cy="21.7" r="2.3"/>
</g>
<g>
	<circle class="st0" cx="31.1" cy="21.7" r="2.3"/>
</g>
<g>
	<circle class="st0" cx="40.5" cy="21.7" r="2.3"/>
</g>
<g>
	<path class="st0" d="M54.8,24.1h23.4c1.3,0,2.3-1,2.3-2.3s-1-2.3-2.3-2.3H54.8c-1.3,0-2.3,1-2.3,2.3S53.5,24.1,54.8,24.1z"/>
</g>
</svg>
