<?xml version="1.0" encoding="utf-8"?>
<!-- Generator: Adobe Illustrator 22.1.0, SVG Export Plug-In . SVG Version: 6.00 Build 0)  -->
<svg version="1.1" id="Capa_1" xmlns="http://www.w3.org/2000/svg" xmlns:xlink="http://www.w3.org/1999/xlink" x="0px" y="0px"
	 viewBox="0 0 240 80" style="enable-background:new 0 0 240 80;" xml:space="preserve">
<style type="text/css">
	.st0{fill:#FFFFFF;}
	.st1{fill:#BBBDBF;}
	.st2{fill:#E6E7E8;}
	.st3{fill:url(#SVGID_1_);}
	.st4{fill:url(#SVGID_2_);}
	.st5{fill:url(#SVGID_3_);}
	.st6{fill:url(#SVGID_4_);}
	.st7{fill:url(#SVGID_5_);}
	.st8{fill:url(#SVGID_6_);}
	.st9{fill:url(#SVGID_7_);}
	.st10{fill:url(#SVGID_8_);}
	.st11{fill:url(#SVGID_9_);}
	.st12{fill:url(#SVGID_10_);}
	.st13{fill:url(#SVGID_11_);}
	.st14{fill:url(#SVGID_12_);}
	.st15{fill:url(#SVGID_13_);}
	.st16{fill:url(#SVGID_14_);}
</style>
<g>
	<g>
		<g>
			<path class="st0" d="M22.6,40.6c0.2-0.3,0.5-0.6,0.7-0.9c-2.8-0.5-3.3-3.1-3.3-3.1c1.4,1.8,3.2,1.9,4.4,1.8
				c0-0.1,0.1-0.1,0.1-0.2c0.3-0.4,0.7-0.8,1.1-1.2c0.4-0.4,0.7-0.8,1.1-1.1c0.8-0.8,1.6-1.5,2.5-2.1c-0.9-0.3-2.2-1.1-3.6-3.6
				c0,0,2.5,2.2,5.1,2.5c0.2-0.2,0.4-0.3,0.7-0.5c0.8-0.5,1.5-1,2.3-1.5c0.8-0.4,1.5-0.9,2.2-1.3c0.4-0.2,0.8-0.5,1.2-0.7
				c0.4-1.1,0.6-3-0.8-4.3c0,0,2.4,1.2,2,3.7c0.5-0.3,1-0.5,1.5-0.7c1-0.5,2-0.9,2.8-1.2c0.6-1,1.1-2.5,0.6-4.1c0,0,1.4,1.8,0.6,3.6
				c1.2-0.5,1.8-0.7,1.8-0.7s-0.9,0.5-2.5,1.5c-0.8,0.5-1.7,1.1-2.8,1.8c-1.1,0.7-2.3,1.5-3.6,2.5c-1.3,0.9-2.6,2-4,3.1
				c-1.4,1.1-2.8,2.4-4.1,3.8c-0.3,0.3-0.6,0.7-1,1.1c-0.3,0.4-0.6,0.7-0.9,1.1c-0.3,0.4-0.6,0.8-0.9,1.2c-0.3,0.4-0.6,0.8-1,1.2
				c-0.3,0.3-0.6,0.7-0.9,1c1.8,1.3,5.6,4.5,7.8,8.6c0,0,10.4-14.3,26.6-17.4c0,0-3.5-4.6-3.2-11.6C55.3,15.8,55,12,51.1,9.3
				c-3.8-2.7-8.7-4.4-13.6,1.2c1.5,0.4,3.1,1.1,4.8,2.2c0,0-10.3-5.5-16.9,5c1.5-0.1,3.2,0,5.1,0.3c0,0-13.1-0.3-17,10.5
				c0.6-0.3,1.2-0.4,1.7-0.6c1.3-0.3,2.5-0.4,3.5-0.3c1,0.1,1.7,0.3,2.1,0.5c0.5,0.2,0.7,0.3,0.7,0.3s-0.3,0-0.7-0.1
				c-0.5-0.1-1.2-0.1-2.1-0.1c-0.9,0.1-2,0.3-3.1,0.8c-1.1,0.5-2.4,1.2-3.5,2.2c-1.1,1-2.1,2.3-2.8,3.7c-0.3,0.7-0.5,1.5-0.5,2.3
				c0,0.4,0.1,0.8,0.1,1.1L9,38.6l0,0.2l0,0c0,0,0-0.1,0,0l0,0l0,0.1l0.2,0.6c0.7,1.5,2,2.7,3.6,3.6c1.6,0.8,3.4,1,5.1,0.6
				C19.8,43.1,21.3,42,22.6,40.6z M29.8,46.8l-0.7-1c0,0,5.8-8.7,11.2-12.1C40.3,33.6,32,42.9,29.8,46.8z M28,44.7l-1.4-1.2
				c0,0,4.7-7.1,15-13.6C41.6,29.9,30.4,39.3,28,44.7z"/>
			<path class="st1" d="M42.7,44c-6.5,5.2-9.2,8.4-10.3,10.2c0,0,8.1-0.7,16.4-6.2C57,42.5,59.9,36,60,36
				C56.9,36.4,50.3,37.9,42.7,44z"/>
			<path class="st0" d="M61.7,35.8c0,0-0.6,0-1.8,0.1L61.7,35.8z"/>
			<path d="M22.3,44.5c4.3,2.1,9.2,11.2,9.2,11.2s18.1,0.6,30.2-19.9L60,36c1.1-0.2,1.8-0.1,1.8-0.1c-3.7-4.6-5.7-10.4-4.8-14.2
				c0.8-3.8,0.3-12.8-8.3-15.5c-6.7-2.1-10.7,2.2-12.2,4.2C28.9,9,24.2,15.6,22.8,18c-8.8,1.6-11.2,9.2-11.7,12
				c-1.4,1-2.7,2.3-3.6,4.1C6.9,35,6.6,36,6.5,37.1c-0.1,0.6,0,1.1,0.1,1.8l0.1,0.4l0,0.2l0,0l0,0.1l0,0l0,0.1
				c0.1,0.3,0.2,0.5,0.3,0.8c0.1,0.3,0.2,0.5,0.4,0.8c0.1,0.2,0.3,0.5,0.4,0.7c0.3,0.4,0.6,0.9,1,1.3c0.7,0.9,1.7,1.5,2.7,2.1
				c2.1,1.1,4.7,1.5,7.1,0.9C20.1,45.9,21.2,45.3,22.3,44.5z M48.7,48c-8.3,5.5-16.4,6.2-16.4,6.2c1.1-1.7,3.8-5,10.3-10.2
				c7.7-6.1,14.3-7.6,17.3-8C59.9,36,57,42.5,48.7,48z M13,43c-1.5-0.8-2.9-2.1-3.6-3.6l-0.2-0.6l0-0.1l0,0c0,0,0,0,0,0l0,0l0-0.2
				L9,38.3c0-0.3-0.1-0.7-0.1-1.1c0-0.8,0.2-1.5,0.5-2.3c0.6-1.5,1.7-2.8,2.8-3.7c1.1-1,2.3-1.7,3.5-2.2c1.2-0.5,2.2-0.7,3.1-0.8
				c0.9-0.1,1.6,0,2.1,0.1c0.5,0.1,0.7,0.1,0.7,0.1s-0.2-0.1-0.7-0.3c-0.5-0.1-1.2-0.4-2.1-0.5c-0.9-0.1-2.1,0-3.5,0.3
				c-0.6,0.1-1.2,0.3-1.7,0.6c3.9-10.8,17-10.5,17-10.5c-1.9-0.3-3.6-0.4-5.1-0.3c6.6-10.5,16.9-5,16.9-5c-1.7-1.1-3.3-1.8-4.8-2.2
				c5-5.6,9.8-3.9,13.6-1.2C55,12,55.3,15.8,55,22.9c-0.3,7.1,3.2,11.6,3.2,11.6c-16.2,3.1-26.6,17.4-26.6,17.4
				c-2.1-4.1-6-7.2-7.8-8.6c0.3-0.3,0.6-0.6,0.9-1c0.3-0.4,0.6-0.8,1-1.2c0.3-0.4,0.6-0.8,0.9-1.2c0.3-0.4,0.6-0.8,0.9-1.1
				c0.3-0.4,0.6-0.7,1-1.1c1.3-1.4,2.7-2.7,4.1-3.8c1.4-1.1,2.7-2.2,4-3.1c1.3-0.9,2.5-1.8,3.6-2.5c1.1-0.7,2-1.3,2.8-1.8
				c1.6-1,2.5-1.5,2.5-1.5s-0.7,0.2-1.8,0.7c0.7-1.7-0.6-3.6-0.6-3.6c0.5,1.6,0,3.1-0.6,4.1c-0.8,0.3-1.8,0.7-2.8,1.2
				c-0.5,0.2-1,0.5-1.5,0.7c0.4-2.5-2-3.7-2-3.7c1.4,1.4,1.1,3.2,0.8,4.3c-0.4,0.2-0.8,0.4-1.2,0.7c-0.7,0.4-1.4,0.8-2.2,1.3
				c-0.7,0.5-1.5,1-2.3,1.5c-0.2,0.2-0.4,0.3-0.7,0.5c-2.6-0.3-5.1-2.5-5.1-2.5c1.4,2.5,2.7,3.4,3.6,3.6c-0.8,0.7-1.7,1.4-2.5,2.1
				c-0.4,0.4-0.7,0.7-1.1,1.1c-0.4,0.4-0.7,0.8-1.1,1.2c0,0.1-0.1,0.1-0.1,0.2c-1.1,0.1-2.9,0-4.4-1.8c0,0,0.5,2.6,3.3,3.1
				c-0.2,0.3-0.5,0.6-0.7,0.9c-1.2,1.3-2.8,2.5-4.5,2.9C16.4,44,14.5,43.8,13,43z"/>
			<path d="M26.6,43.5l1.4,1.2c2.4-5.4,13.6-14.8,13.6-14.8C31.3,36.3,26.6,43.5,26.6,43.5z"/>
			<path d="M29.1,45.7l0.7,1c2.3-3.8,10.5-13.1,10.5-13.1C34.9,37,29.1,45.7,29.1,45.7z"/>
			<g>
				<path class="st2" d="M30.5,18c0,0-0.3,0-0.8,0L30.5,18z"/>
			</g>
		</g>
	</g>
	<g>
		<g>
			<linearGradient id="SVGID_1_" gradientUnits="userSpaceOnUse" x1="35.0672" y1="56.6712" x2="72.2628" y2="56.6712">
				<stop  offset="0" style="stop-color:#FFFFFF"/>
				<stop  offset="1" style="stop-color:#000000"/>
			</linearGradient>
			<path class="st3" d="M54,65.8c-5,0-8.4-3.8-8.4-8.9c0-2.5,0.8-4.8,2.3-6.5c1.5-1.6,3.6-2.6,6.1-2.5c4.4,0,6.5,2.5,7.6,4.9h10.6
				c-1.8-8.6-9.6-17-18.6-14.7c-8,2-18.5,8.4-18.5,18.7c0,10.4,8.2,18.8,18.8,18.8c9.5,0,16.5-6.5,18.4-14.5H61.6
				C60.4,63.2,58.3,65.8,54,65.8z"/>
			<linearGradient id="SVGID_2_" gradientUnits="userSpaceOnUse" x1="73.2145" y1="56.8528" x2="111.0425" y2="56.8528">
				<stop  offset="0" style="stop-color:#FFFFFF"/>
				<stop  offset="1" style="stop-color:#000000"/>
			</linearGradient>
			<path class="st4" d="M92.1,38.2c-12.8,0-18.9,10.1-18.9,18.6v0.1c0,8.6,6.1,18.7,18.9,18.7c12.8,0,18.9-10.1,18.9-18.7
				S104.9,38.2,92.1,38.2z M92.1,65.7c-4.6,0-8.4-3.7-8.4-8.8v-0.1c0-5.1,3.9-8.9,8.4-8.9s8.4,3.7,8.4,8.9S96.7,65.7,92.1,65.7z"/>
			<linearGradient id="SVGID_3_" gradientUnits="userSpaceOnUse" x1="112.1838" y1="56.8528" x2="150.0118" y2="56.8528">
				<stop  offset="0" style="stop-color:#FFFFFF"/>
				<stop  offset="1" style="stop-color:#000000"/>
			</linearGradient>
			<path class="st5" d="M131.1,38.2c-12.8,0-18.9,10.1-18.9,18.6v0.1c0,8.6,6.1,18.7,18.9,18.7c12.8,0,18.9-10.1,18.9-18.7
				S143.9,38.2,131.1,38.2z M131.1,65.7c-4.6,0-8.4-3.7-8.4-8.8v-0.1c0-5.1,3.9-8.9,8.4-8.9c4.6,0,8.4,3.7,8.4,8.9
				S135.7,65.7,131.1,65.7z"/>
			<linearGradient id="SVGID_4_" gradientUnits="userSpaceOnUse" x1="151.5589" y1="51.0333" x2="184.3895" y2="51.0333">
				<stop  offset="0" style="stop-color:#FFFFFF"/>
				<stop  offset="1" style="stop-color:#000000"/>
			</linearGradient>
			<polygon class="st6" points="171.9,39.3 162.1,52 162.1,27.6 151.6,27.6 151.6,74.4 162.1,74.4 162.1,57.5 172.1,74.4 184,74.4 
				171.2,54.8 184.4,39.3 			"/>
			<linearGradient id="SVGID_5_" gradientUnits="userSpaceOnUse" x1="187.0221" y1="56.8846" x2="197.5226" y2="56.8846">
				<stop  offset="0" style="stop-color:#FFFFFF"/>
				<stop  offset="1" style="stop-color:#000000"/>
			</linearGradient>
			<rect x="187" y="39.3" class="st7" width="10.5" height="35.1"/>
			<linearGradient id="SVGID_6_" gradientUnits="userSpaceOnUse" x1="200.8935" y1="56.2835" x2="233.4077" y2="56.2835">
				<stop  offset="0" style="stop-color:#FFFFFF"/>
				<stop  offset="1" style="stop-color:#000000"/>
			</linearGradient>
			<path class="st8" d="M220.4,38.1c-6.3,0-8.5,3.2-9.7,4.9v-3.7h-9.8v35.1h10.5V55.3c0-3.6,0.8-7.3,6-7.3c4.7,0,5.5,3.4,5.5,7.3
				v19.2h10.5v-22C233.4,47.7,232.2,38.1,220.4,38.1z"/>
			<linearGradient id="SVGID_7_" gradientUnits="userSpaceOnUse" x1="186.6089" y1="32.0195" x2="197.9358" y2="32.0195">
				<stop  offset="0" style="stop-color:#FFFFFF"/>
				<stop  offset="1" style="stop-color:#000000"/>
			</linearGradient>
			<circle class="st9" cx="192.3" cy="32" r="5.7"/>
		</g>
		<g>
			<linearGradient id="SVGID_8_" gradientUnits="userSpaceOnUse" x1="133.9709" y1="35.5747" x2="134.5457" y2="76.6241">
				<stop  offset="0" style="stop-color:#A1DB93"/>
				<stop  offset="1" style="stop-color:#4DBC4B"/>
			</linearGradient>
			<path class="st10" d="M54,65.8c-5,0-8.4-3.8-8.4-8.9c0-2.5,0.8-4.8,2.3-6.5c1.5-1.6,3.6-2.6,6.1-2.5c4.4,0,6.5,2.5,7.6,4.9h10.6
				c-1.8-8.6-9.6-17-18.6-14.7c-8,2-18.5,8.4-18.5,18.7c0,10.4,8.2,18.8,18.8,18.8c9.5,0,16.5-6.5,18.4-14.5H61.6
				C60.4,63.2,58.3,65.8,54,65.8z"/>
			<linearGradient id="SVGID_9_" gradientUnits="userSpaceOnUse" x1="133.9709" y1="35.5747" x2="134.5457" y2="76.6241">
				<stop  offset="0" style="stop-color:#A1DB93"/>
				<stop  offset="1" style="stop-color:#4DBC4B"/>
			</linearGradient>
			<path class="st11" d="M92.1,38.2c-12.8,0-18.9,10.1-18.9,18.6v0.1c0,8.6,6.1,18.7,18.9,18.7c12.8,0,18.9-10.1,18.9-18.7
				S104.9,38.2,92.1,38.2z M92.1,65.7c-4.6,0-8.4-3.7-8.4-8.8v-0.1c0-5.1,3.9-8.9,8.4-8.9s8.4,3.7,8.4,8.9S96.7,65.7,92.1,65.7z"/>
			<linearGradient id="SVGID_10_" gradientUnits="userSpaceOnUse" x1="133.9709" y1="35.5747" x2="134.5457" y2="76.6241">
				<stop  offset="0" style="stop-color:#A1DB93"/>
				<stop  offset="1" style="stop-color:#4DBC4B"/>
			</linearGradient>
			<path class="st12" d="M131.1,38.2c-12.8,0-18.9,10.1-18.9,18.6v0.1c0,8.6,6.1,18.7,18.9,18.7c12.8,0,18.9-10.1,18.9-18.7
				S143.9,38.2,131.1,38.2z M131.1,65.7c-4.6,0-8.4-3.7-8.4-8.8v-0.1c0-5.1,3.9-8.9,8.4-8.9c4.6,0,8.4,3.7,8.4,8.9
				S135.7,65.7,131.1,65.7z"/>
			<linearGradient id="SVGID_11_" gradientUnits="userSpaceOnUse" x1="133.9709" y1="35.5747" x2="134.5457" y2="76.6241">
				<stop  offset="0" style="stop-color:#A1DB93"/>
				<stop  offset="1" style="stop-color:#4DBC4B"/>
			</linearGradient>
			<polygon class="st13" points="171.9,39.3 162.1,52 162.1,27.6 151.6,27.6 151.6,74.4 162.1,74.4 162.1,57.5 172.1,74.4 184,74.4 
				171.2,54.8 184.4,39.3 			"/>
			<linearGradient id="SVGID_12_" gradientUnits="userSpaceOnUse" x1="133.9709" y1="35.5747" x2="134.5457" y2="76.6241">
				<stop  offset="0" style="stop-color:#A1DB93"/>
				<stop  offset="1" style="stop-color:#4DBC4B"/>
			</linearGradient>
			<rect x="187" y="39.3" class="st14" width="10.5" height="35.1"/>
			<linearGradient id="SVGID_13_" gradientUnits="userSpaceOnUse" x1="133.9709" y1="35.5747" x2="134.5457" y2="76.6241">
				<stop  offset="0" style="stop-color:#A1DB93"/>
				<stop  offset="1" style="stop-color:#4DBC4B"/>
			</linearGradient>
			<path class="st15" d="M220.4,38.1c-6.3,0-8.5,3.2-9.7,4.9v-3.7h-9.8v35.1h10.5V55.3c0-3.6,0.8-7.3,6-7.3c4.7,0,5.5,3.4,5.5,7.3
				v19.2h10.5v-22C233.4,47.7,232.2,38.1,220.4,38.1z"/>
			<linearGradient id="SVGID_14_" gradientUnits="userSpaceOnUse" x1="133.9709" y1="35.5747" x2="134.5457" y2="76.6241">
				<stop  offset="0" style="stop-color:#A1DB93"/>
				<stop  offset="1" style="stop-color:#4DBC4B"/>
			</linearGradient>
			<circle class="st16" cx="192.3" cy="32" r="5.7"/>
		</g>
	</g>
</g>
</svg>
