<?xml version="1.0" encoding="utf-8"?>
<!-- Generator: Adobe Illustrator 22.1.0, SVG Export Plug-In . SVG Version: 6.00 Build 0)  -->
<svg version="1.1" id="Capa_1" xmlns="http://www.w3.org/2000/svg" xmlns:xlink="http://www.w3.org/1999/xlink" x="0px" y="0px"
	 viewBox="0 0 240 80" style="enable-background:new 0 0 240 80;" xml:space="preserve">
<style type="text/css">
	.st0{fill:#FFFFFF;}
</style>
<g>
	<path class="st0" d="M41.6,27.7c-10.3,6.4-15,13.6-15,13.6l1.4,1.2C30.4,37.1,41.6,27.7,41.6,27.7z"/>
	<path class="st0" d="M29.1,43.5l0.7,1c2.3-3.8,10.5-13.1,10.5-13.1C34.9,34.8,29.1,43.5,29.1,43.5z"/>
	<path class="st0" d="M54,63.6c-5,0-8.4-3.8-8.4-8.9c0-2.5,0.8-4.7,2.2-6.4c1-0.6,2-1.3,2.9-2.1c1-0.4,2.1-0.6,3.2-0.5
		c4.4,0,6.5,2.5,7.6,4.9h10.6c-1.3-6.4-6-12.7-12.1-14.6c0.5-0.8,1-1.5,1.5-2.4c0.1,0,0.2,0,0.2,0c-3.7-4.6-5.7-10.4-4.8-14.2
		c0.8-3.8,0.3-12.8-8.3-15.5C42,1.9,38,6.2,36.5,8.2c-7.6-1.4-12.3,5.2-13.7,7.6c-8.8,1.6-11.2,9.2-11.7,12c-1.4,1-2.7,2.3-3.6,4.1
		c-0.6,0.9-0.9,1.9-1,3c-0.1,0.6,0,1.1,0.1,1.8l0.1,0.4v0.2v0.1v0.1C6.8,37.8,6.9,38,7,38.3c0.1,0.3,0.2,0.5,0.4,0.8
		c0.1,0.2,0.3,0.5,0.4,0.7c0.3,0.4,0.6,0.9,1,1.3c0.7,0.9,1.7,1.5,2.7,2.1c2.1,1.1,4.7,1.5,7.1,0.9c1.5-0.4,2.6-1,3.7-1.8
		c4.3,2.1,9.2,11.2,9.2,11.2s1.4,0,3.7-0.3c0,0.5-0.1,0.9-0.1,1.4c0,10.4,8.2,18.8,18.8,18.8c9.5,0,16.5-6.5,18.4-14.5H61.6
		C60.4,61,58.3,63.6,54,63.6z M60,33.8c0.4-0.1,0.7-0.1,1-0.1L60,33.8z M58.8,35.7c-1.7-0.3-3.4-0.3-5.2,0.2
		c-1.2,0.3-2.5,0.7-3.8,1.2c4.5-2.3,8.1-3,10.1-3.3C59.9,33.8,59.6,34.5,58.8,35.7z M31.6,49.7c-2.1-4.1-6-7.2-7.8-8.6
		c0.3-0.3,0.6-0.6,0.9-1c0.3-0.4,0.6-0.8,1-1.2c0.3-0.4,0.6-0.8,0.9-1.2c0.3-0.4,0.6-0.8,0.9-1.1c0.3-0.4,0.6-0.7,1-1.1
		c1.3-1.4,2.7-2.7,4.1-3.8c1.4-1.1,2.7-2.2,4-3.1c1.3-0.9,2.5-1.8,3.6-2.5c1.1-0.7,2-1.3,2.8-1.8c1.6-1,2.5-1.5,2.5-1.5
		s-0.7,0.2-1.8,0.7c0.7-1.7-0.6-3.6-0.6-3.6c0.5,1.6,0,3.1-0.6,4.1c-0.8,0.3-1.8,0.7-2.8,1.2c-0.5,0.2-1,0.5-1.5,0.7
		c0.4-2.5-2-3.7-2-3.7c1.4,1.4,1.1,3.2,0.8,4.3c-0.4,0.2-0.8,0.4-1.2,0.7c-0.7,0.4-1.4,0.8-2.2,1.3c-0.7,0.5-1.5,1-2.3,1.5
		c-0.2,0.2-0.4,0.3-0.7,0.5C28,30.2,25.5,28,25.5,28c1.4,2.5,2.7,3.4,3.6,3.6c-0.8,0.7-1.7,1.4-2.5,2.1c-0.4,0.4-0.7,0.7-1.1,1.1
		c-0.4,0.4-0.7,0.8-1.1,1.2c0,0.1-0.1,0.1-0.1,0.2c-1.1,0.1-2.9,0-4.4-1.8c0,0,0.5,2.6,3.3,3.1c-0.2,0.3-0.5,0.6-0.7,0.9
		c-1.2,1.3-2.8,2.5-4.5,2.9c-1.6,0.5-3.5,0.3-5-0.5c-1.5-0.8-2.9-2.1-3.6-3.6l-0.2-0.6v-0.1v-0.2L9,36.1c0-0.3-0.1-0.7-0.1-1.1
		c0-0.8,0.2-1.5,0.5-2.3c0.6-1.5,1.7-2.8,2.8-3.7c1.1-1,2.3-1.7,3.5-2.2s2.2-0.7,3.1-0.8c0.9-0.1,1.6,0,2.1,0.1
		c0.5,0.1,0.7,0.1,0.7,0.1s-0.2-0.1-0.7-0.3c-0.5-0.1-1.2-0.4-2.1-0.5c-0.9-0.1-2.1,0-3.5,0.3c-0.6,0.1-1.2,0.3-1.7,0.6
		c3.9-10.8,17-10.5,17-10.5c-1.9-0.3-3.6-0.4-5.1-0.3c6.6-10.5,16.9-5,16.9-5c-1.7-1.1-3.3-1.8-4.8-2.2c5-5.6,9.8-3.9,13.6-1.2
		c3.8,2.7,4.1,6.5,3.8,13.6s3.2,11.6,3.2,11.6C42,35.4,31.6,49.7,31.6,49.7z M32.3,52c0.8-1.2,2.5-3.3,5.9-6.4
		c-1.3,1.7-2.2,3.7-2.7,5.9C33.5,51.9,32.3,52,32.3,52z"/>
	<path class="st0" d="M92.1,36c-12.8,0-18.9,10.1-18.9,18.6v0.1c0,8.6,6.1,18.7,18.9,18.7c12.8,0,18.9-10.1,18.9-18.7
		C111,46.1,104.9,36,92.1,36z M92.1,63.5c-4.6,0-8.4-3.7-8.4-8.8v-0.1c0-5.1,3.9-8.9,8.4-8.9s8.4,3.7,8.4,8.9
		C100.5,59.8,96.7,63.5,92.1,63.5z"/>
	<path class="st0" d="M131.1,36c-12.8,0-18.9,10.1-18.9,18.6v0.1c0,8.6,6.1,18.7,18.9,18.7c12.8,0,18.9-10.1,18.9-18.7
		C150,46.1,143.9,36,131.1,36z M131.1,63.5c-4.6,0-8.4-3.7-8.4-8.8v-0.1c0-5.1,3.9-8.9,8.4-8.9c4.6,0,8.4,3.7,8.4,8.9
		C139.5,59.8,135.7,63.5,131.1,63.5z"/>
	<polygon class="st0" points="171.9,37.1 162.1,49.8 162.1,25.4 151.6,25.4 151.6,72.2 162.1,72.2 162.1,55.3 172.1,72.2 184,72.2 
		171.2,52.6 184.4,37.1 	"/>
	<rect x="187" y="37.1" class="st0" width="10.5" height="35.1"/>
	<path class="st0" d="M220.4,35.9c-6.3,0-8.5,3.2-9.7,4.9v-3.7h-9.8v35.1h10.5V53.1c0-3.6,0.8-7.3,6-7.3c4.7,0,5.5,3.4,5.5,7.3v19.2
		h10.5v-22C233.4,45.5,232.2,35.9,220.4,35.9z"/>
	<ellipse transform="matrix(0.9732 -0.2298 0.2298 0.9732 -1.701 44.9787)" class="st0" cx="192.3" cy="29.8" rx="5.7" ry="5.7"/>
</g>
</svg>
