<?xml version="1.0" encoding="utf-8"?>
<!-- Generator: Adobe Illustrator 22.1.0, SVG Export Plug-In . SVG Version: 6.00 Build 0)  -->
<svg version="1.1" id="Capa_1" xmlns="http://www.w3.org/2000/svg" xmlns:xlink="http://www.w3.org/1999/xlink" x="0px" y="0px"
	 viewBox="0 0 40 40" style="enable-background:new 0 0 40 40;" xml:space="preserve">
<style type="text/css">
	.st0{fill:#FFFFFF;}
</style>
<g>
	<path class="st0" d="M23.4,10.2c0.5,0,0.9-0.4,0.9-0.9s-0.4-0.9-0.9-0.9h-8.8c-0.5,0-0.9,0.4-0.9,0.9s0.4,0.9,0.9,0.9H23.4z"/>
	<path class="st0" d="M29.5,20.5c-0.3,0.2-0.4,0.6-0.3,1s0.5,0.6,0.9,0.6s0.8-0.3,0.9-0.7c0.1-0.4-0.1-0.8-0.4-1
		C30.2,20.2,29.8,20.2,29.5,20.5z"/>
	<path class="st0" d="M31,15l3.4-3.4c1-1,1-2.5,0-3.5l-1.6-1.6l0,0C32.3,6,31.6,5.8,31,5.8V5.7c0-1.6-1.3-2.9-2.9-2.9H7.7
		c-1.6,0-2.9,1.3-2.9,2.9v27.5c0,1.6,1.3,2.9,2.9,2.9h14.8v0.3c0,0.3,0.2,0.6,0.4,0.8c0.3,0.2,0.6,0.2,0.9,0l1.5-0.8l1.5,0.8
		c0.1,0.1,0.3,0.1,0.4,0.1c0.2,0,0.3,0,0.5-0.1c0.3-0.2,0.4-0.5,0.4-0.8V36h2c0.5,0,0.9-0.4,0.9-0.9v-11c0-0.5-0.4-0.9-0.9-0.9
		s-0.9,0.4-0.9,0.9v6.1H10.6V4.6h17.5c0.6,0,1.1,0.5,1.1,1.1v1l-14,14l-0.1,0.1l-2,5.3c-0.2,0.5-0.1,1.1,0.3,1.4
		c0.4,0.4,0.9,0.5,1.4,0.3l5.2-1.9c0.1,0,0.2-0.1,0.3-0.2l8.9-8.9v1.4c0,0.5,0.4,0.9,0.9,0.9s0.9-0.4,0.9-0.9C31,18.2,31,15,31,15z
		 M28.1,32.1h1v2.1h-1V32.1z M24.3,32.1h2v2.7l-0.6-0.3c-0.1-0.1-0.3-0.1-0.4-0.1s-0.3,0-0.4,0.1l-0.6,0.3V32.1z M6.7,5.6
		c0-0.6,0.5-1.1,1.1-1.1h1.1v25.7H7.8c-0.4,0-0.7,0.1-1.1,0.2C6.7,30.4,6.7,5.6,6.7,5.6z M22.5,32.1v2.1H7.7c-0.6,0-1.1-0.5-1.1-1.1
		S7.1,32,7.7,32L22.5,32.1L22.5,32.1z M30.5,7.6c0.3-0.3,0.9-0.3,1.2,0l1.6,1.6c0.3,0.3,0.3,0.9,0,1.2L32.7,11l-2.8-2.8L30.5,7.6z
		 M14.7,26.1l1.3-3.5l2.2,2.2L14.7,26.1z M19.7,24l-0.8-0.8l4.6-4.6c0.3-0.3,0.3-0.8,0-1.1c-0.3-0.3-0.8-0.3-1.1,0L17.7,22l-0.8-0.8
		l10.3-10.3l0.8,0.8l-3.8,3.8C24,15.7,23.9,16,24,16.3s0.3,0.5,0.6,0.6c0.3,0.1,0.6,0,0.8-0.2l3.8-3.8l0.8,0.8L19.7,24z M28.3,9.8
		l0.4-0.4l2.8,2.8l-0.4,0.4L28.3,9.8z"/>
</g>
</svg>
