<?xml version="1.0" encoding="utf-8"?>
<!-- Generator: Adobe Illustrator 22.1.0, SVG Export Plug-In . SVG Version: 6.00 Build 0)  -->
<svg version="1.1" id="Capa_1" xmlns="http://www.w3.org/2000/svg" xmlns:xlink="http://www.w3.org/1999/xlink" x="0px" y="0px"
	 viewBox="0 0 50 50" style="enable-background:new 0 0 50 50;" xml:space="preserve">
<style type="text/css">
	.st0{fill:#4DBC4B;}
</style>
<g>
	<path class="st0" d="M28.4,15.2c0.5,0,0.9-0.4,0.9-0.9s-0.4-0.9-0.9-0.9h-8.8c-0.5,0-0.9,0.4-0.9,0.9s0.4,0.9,0.9,0.9H28.4z"/>
	<path class="st0" d="M34.5,25.5c-0.3,0.2-0.4,0.6-0.3,1s0.5,0.6,0.9,0.6c0.4,0,0.8-0.3,0.9-0.7c0.1-0.4-0.1-0.8-0.4-1
		C35.2,25.2,34.8,25.2,34.5,25.5z"/>
	<path class="st0" d="M36,20l3.4-3.4c1-1,1-2.5,0-3.5l-1.6-1.6l0,0c-0.5-0.5-1.2-0.7-1.8-0.7v-0.1c0-1.6-1.3-2.9-2.9-2.9H12.7
		c-1.6,0-2.9,1.3-2.9,2.9v27.5c0,1.6,1.3,2.9,2.9,2.9h14.8v0.3c0,0.3,0.2,0.6,0.4,0.8c0.3,0.2,0.6,0.2,0.9,0l1.5-0.8l1.5,0.8
		c0.1,0.1,0.3,0.1,0.4,0.1c0.2,0,0.3,0,0.5-0.1c0.3-0.2,0.4-0.5,0.4-0.8V41h2c0.5,0,0.9-0.4,0.9-0.9v-11c0-0.5-0.4-0.9-0.9-0.9
		s-0.9,0.4-0.9,0.9v6.1H15.6V9.6h17.5c0.6,0,1.1,0.5,1.1,1.1v1l-14,14l-0.1,0.1l-2,5.3c-0.2,0.5-0.1,1.1,0.3,1.4
		c0.4,0.4,0.9,0.5,1.4,0.3l5.2-1.9c0.1,0,0.2-0.1,0.3-0.2l8.9-8.9v1.4c0,0.5,0.4,0.9,0.9,0.9s0.9-0.4,0.9-0.9C36,23.2,36,20,36,20z
		 M33.1,37.1h1v2.1h-1V37.1z M29.3,37.1h2v2.7l-0.6-0.3c-0.1-0.1-0.3-0.1-0.4-0.1s-0.3,0-0.4,0.1l-0.6,0.3V37.1z M11.7,10.6
		c0-0.6,0.5-1.1,1.1-1.1h1.1v25.7h-1.1c-0.4,0-0.7,0.1-1.1,0.2C11.7,35.4,11.7,10.6,11.7,10.6z M27.5,37.1v2.1H12.7
		c-0.6,0-1.1-0.5-1.1-1.1s0.5-1.1,1.1-1.1L27.5,37.1L27.5,37.1z M35.5,12.6c0.3-0.3,0.9-0.3,1.2,0l1.6,1.6c0.3,0.3,0.3,0.9,0,1.2
		L37.7,16l-2.8-2.8L35.5,12.6z M19.7,31.1l1.3-3.5l2.2,2.2L19.7,31.1z M24.7,29l-0.8-0.8l4.6-4.6c0.3-0.3,0.3-0.8,0-1.1
		c-0.3-0.3-0.8-0.3-1.1,0L22.7,27l-0.8-0.8l10.3-10.3l0.8,0.8l-3.8,3.8C29,20.7,28.9,21,29,21.3s0.3,0.5,0.6,0.6
		c0.3,0.1,0.6,0,0.8-0.2l3.8-3.8l0.8,0.8L24.7,29z M33.3,14.8l0.4-0.4l2.8,2.8l-0.4,0.4L33.3,14.8z"/>
</g>
</svg>
