<?xml version="1.0" encoding="utf-8"?>
<!-- Generator: Adobe Illustrator 22.1.0, SVG Export Plug-In . SVG Version: 6.00 Build 0)  -->
<svg version="1.1" id="Capa_1" xmlns="http://www.w3.org/2000/svg" xmlns:xlink="http://www.w3.org/1999/xlink" x="0px" y="0px"
	 viewBox="0 0 40 40" style="enable-background:new 0 0 40 40;" xml:space="preserve">
<style type="text/css">
	.st0{fill:#FFFFFF;}
</style>
<g>
	
		<rect x="17.1" y="21.2" transform="matrix(3.665462e-02 -0.9993 0.9993 3.665462e-02 1.302 46.1911)" class="st0" width="15" height="2.5"/>
	<rect x="18.7" y="14.9" class="st0" width="2.5" height="14.9"/>
	
		<rect x="14.1" y="14.9" transform="matrix(0.9993 -3.659400e-02 3.659400e-02 0.9993 -0.8101 0.5782)" class="st0" width="2.5" height="15"/>
	<path class="st0" d="M26.2,8.7V6c0-1.2-0.9-2.1-2.1-2.1h-8.3c-1.2,0-2.1,0.9-2.1,2.1v2.7H5v2.5h2.6L9.7,35c0.1,0.7,0.6,1.2,1.3,1.2
		H29c0.7,0,1.2-0.5,1.3-1.2l2.1-23.7H35V8.7H26.2z M16.3,6.4h7.4v2.3h-7.4V6.4z M27.9,33.6H12.1l-2-22.4h19.7L27.9,33.6z"/>
</g>
</svg>
