<?xml version="1.0" encoding="utf-8"?>
<!-- Generator: Adobe Illustrator 22.1.0, SVG Export Plug-In . SVG Version: 6.00 Build 0)  -->
<svg version="1.1" id="Capa_1" xmlns="http://www.w3.org/2000/svg" xmlns:xlink="http://www.w3.org/1999/xlink" x="0px" y="0px"
	 viewBox="0 0 40 40" style="enable-background:new 0 0 40 40;" xml:space="preserve">
<style type="text/css">
	.st0{fill:#FFFFFF;}
</style>
<path id="Shape_2_" class="st0" d="M6.4,26.5L6.4,26.5l-2.9,7.7c-0.2,0.6-0.1,1.3,0.4,1.8c0.3,0.3,0.7,0.5,1.2,0.5
	c0.2,0,0.4,0,0.6-0.1l7.7-2.9c0.1,0,0.2-0.1,0.3-0.2l17-17l2.3-2.3l1.8-1.8c1.3-1.3,1.3-3.4,0-4.7l-2.3-2.3c-1.3-1.2-3.4-1.2-4.7,0
	l-1.8,1.8l-2.3,2.3l-17,17C6.5,26.2,6.5,26.3,6.4,26.5L6.4,26.5z M5.1,34.7l2.4-6.4l2,2l2,2L5.1,34.7z M28.8,6.3
	c0.7-0.6,1.7-0.6,2.3,0l2.3,2.3c0.6,0.6,0.6,1.7,0,2.3l-1.2,1.2L30,9.8l-2.3-2.3L28.8,6.3z M26.5,8.6l2.3,2.3l2.3,2.3L30,14.5
	l-2.3-2.3l-2.3-2.3L26.5,8.6z M24.1,11l1.8,1.8L20,18.6c-0.2,0.2-0.3,0.5-0.2,0.8c0.1,0.3,0.3,0.5,0.6,0.6c0.3,0.1,0.6,0,0.8-0.2
	l5.8-5.8l1.8,1.8L13,31.4l-1.8-1.8l7-7c0.3-0.3,0.3-0.8,0-1.2c-0.3-0.3-0.8-0.3-1.2,0l-7,7l-1.8-1.8L24.1,11z"/>
</svg>
