<?xml version="1.0" encoding="utf-8"?>
<!-- Generator: Adobe Illustrator 22.1.0, SVG Export Plug-In . SVG Version: 6.00 Build 0)  -->
<svg version="1.1" id="Capa_1" xmlns="http://www.w3.org/2000/svg" xmlns:xlink="http://www.w3.org/1999/xlink" x="0px" y="0px"
	 viewBox="0 0 100 100" style="enable-background:new 0 0 100 100;" xml:space="preserve">
<style type="text/css">
	.st0{fill:#4DBC4B;}
</style>
<g>
	<g>
		<path class="st0" d="M71,38.3c-0.4,0-0.8,0.2-1.1,0.4c-0.3,0.3-0.4,0.7-0.4,1.1c0,0.4,0.2,0.8,0.4,1.1c0.3,0.3,0.7,0.4,1.1,0.4
			s0.8-0.2,1.1-0.4c0.3-0.3,0.4-0.7,0.4-1.1c0-0.4-0.2-0.8-0.4-1.1S71.4,38.3,71,38.3z"/>
	</g>
	<g>
		<path class="st0" d="M64.9,20.8h-8.2v-0.4c0-2.4-2-4.4-4.4-4.4h-2.8c-1.3-3-4.2-4.9-7.5-4.9h-0.3c-3.3,0-6.3,2-7.5,4.9h-2.8
			c-2.4,0-4.4,2-4.4,4.4v0.4h-8.2c-4.8,0-7.6,2.3-7.6,6.1v54.5c0,4.2,3.4,7.6,7.6,7.6h46.3c4.2,0,7.6-3.4,7.6-7.6V46.9
			c0-0.8-0.7-1.5-1.5-1.5c-0.8,0-1.5,0.7-1.5,1.5v34.5c0,2.5-2.1,4.6-4.6,4.6H18.6c-2.5,0-4.6-2.1-4.6-4.6V26.8c0-0.8,0-3,4.6-3h8.2
			v2.1c0,0.8,0.7,1.5,1.5,1.5h26.8c0.8,0,1.5-0.7,1.5-1.5v-2.1h8.2c2.5,0,4.6,2.1,4.6,4.6v5.1c0,0.8,0.7,1.5,1.5,1.5
			c0.8,0,1.5-0.7,1.5-1.5v-5.1C72.5,24.2,69.1,20.8,64.9,20.8z M53.7,24.4H29.9v-4c0-0.8,0.6-1.4,1.4-1.4h3.9c0.7,0,1.3-0.5,1.5-1.1
			c0.6-2.2,2.7-3.8,5-3.8h0.3c2.3,0,4.4,1.6,5,3.8c0.2,0.7,0.8,1.1,1.5,1.1h3.9c0.8,0,1.4,0.6,1.4,1.4V24.4z"/>
	</g>
	<g>
		<path class="st0" d="M87.5,60.1c-0.4,0-0.8,0.2-1.1,0.4S86,61.2,86,61.6s0.2,0.8,0.4,1.1s0.7,0.4,1.1,0.4s0.8-0.2,1.1-0.4
			S89,62,89,61.6s-0.2-0.8-0.4-1.1S87.9,60.1,87.5,60.1z"/>
	</g>
	<g>
		<path class="st0" d="M88.9,39.2L84,28.4c-0.2-0.5-0.8-0.9-1.4-0.9s-1.1,0.4-1.4,0.9l-4.9,10.9c-0.1,0.2-0.1,0.4-0.1,0.6v45.5
			c0,2,1.6,3.6,3.6,3.6h5.5c2,0,3.6-1.6,3.6-3.6V68.2c0-0.8-0.7-1.5-1.5-1.5c-0.8,0-1.5,0.7-1.5,1.5v10.7h-6.7V41.4H86v14.1
			c0,0.8,0.7,1.5,1.5,1.5c0.8,0,1.5-0.7,1.5-1.5V39.9C89,39.7,89,39.4,88.9,39.2z M86,81.9v3.4c0,0.3-0.3,0.6-0.6,0.6h-5.5
			c-0.3,0-0.6-0.3-0.6-0.6v-3.4H86z M80.1,38.3l2.5-5.6l2.5,5.6H80.1z"/>
	</g>
	<g>
		<path class="st0" d="M28.9,32.9c-3.5,0-6.4,2.9-6.4,6.4s2.9,6.4,6.4,6.4c3.5,0,6.4-2.9,6.4-6.4S32.5,32.9,28.9,32.9z M28.9,42.7
			c-1.8,0-3.4-1.5-3.4-3.4c0-1.8,1.5-3.4,3.4-3.4c1.8,0,3.4,1.5,3.4,3.4C32.3,41.2,30.8,42.7,28.9,42.7z"/>
	</g>
	<g>
		<path class="st0" d="M28.9,51.2c-3.5,0-6.4,2.9-6.4,6.4s2.9,6.4,6.4,6.4c3.5,0,6.4-2.9,6.4-6.4S32.5,51.2,28.9,51.2z M28.9,61
			c-1.8,0-3.4-1.5-3.4-3.4c0-1.8,1.5-3.4,3.4-3.4c1.8,0,3.4,1.5,3.4,3.4C32.3,59.5,30.8,61,28.9,61z"/>
	</g>
	<g>
		<path class="st0" d="M28.9,69.5c-3.5,0-6.4,2.9-6.4,6.4s2.9,6.4,6.4,6.4c3.5,0,6.4-2.9,6.4-6.4S32.5,69.5,28.9,69.5z M28.9,79.2
			c-1.8,0-3.4-1.5-3.4-3.4c0-1.8,1.5-3.4,3.4-3.4c1.8,0,3.4,1.5,3.4,3.4C32.3,77.7,30.8,79.2,28.9,79.2z"/>
	</g>
	<g>
		<path class="st0" d="M59.5,42.7H42c-0.8,0-1.5,0.7-1.5,1.5c0,0.8,0.7,1.5,1.5,1.5h17.5c0.8,0,1.5-0.7,1.5-1.5
			C61,43.4,60.3,42.7,59.5,42.7z"/>
	</g>
	<g>
		<path class="st0" d="M59.5,35.4H42c-0.8,0-1.5,0.7-1.5,1.5c0,0.8,0.7,1.5,1.5,1.5h17.5c0.8,0,1.5-0.7,1.5-1.5
			C61,36.1,60.3,35.4,59.5,35.4z"/>
	</g>
	<g>
		<path class="st0" d="M59.5,61H42c-0.8,0-1.5,0.7-1.5,1.5c0,0.8,0.7,1.5,1.5,1.5h17.5c0.8,0,1.5-0.7,1.5-1.5
			C61,61.7,60.3,61,59.5,61z"/>
	</g>
	<g>
		<path class="st0" d="M59.5,53.7H42c-0.8,0-1.5,0.7-1.5,1.5c0,0.8,0.7,1.5,1.5,1.5h17.5c0.8,0,1.5-0.7,1.5-1.5
			C61,54.3,60.3,53.7,59.5,53.7z"/>
	</g>
	<g>
		<path class="st0" d="M59.5,79.2H42c-0.8,0-1.5,0.7-1.5,1.5c0,0.8,0.7,1.5,1.5,1.5h17.5c0.8,0,1.5-0.7,1.5-1.5
			C61,79.9,60.3,79.2,59.5,79.2z"/>
	</g>
	<g>
		<path class="st0" d="M59.5,71.9H42c-0.8,0-1.5,0.7-1.5,1.5c0,0.8,0.7,1.5,1.5,1.5h17.5c0.8,0,1.5-0.7,1.5-1.5
			C61,72.6,60.3,71.9,59.5,71.9z"/>
	</g>
</g>
</svg>
