<?xml version="1.0" encoding="utf-8"?>
<!-- Generator: Adobe Illustrator 22.1.0, SVG Export Plug-In . SVG Version: 6.00 Build 0)  -->
<svg version="1.1" id="Capa_1" xmlns="http://www.w3.org/2000/svg" xmlns:xlink="http://www.w3.org/1999/xlink" x="0px" y="0px"
	 viewBox="0 0 40 40" style="enable-background:new 0 0 40 40;" xml:space="preserve">
<style type="text/css">
	.st0{fill:#FFFFFF;}
</style>
<path class="st0" d="M20,3.8C11,3.8,3.8,11,3.8,20S11,36.2,20,36.2S36.2,29,36.2,20S29,3.8,20,3.8z M20,13c1.9,0,3.5,1.6,3.5,3.5
	S21.9,20,20,20s-3.5-1.6-3.5-3.5S18.1,13,20,13z M12.9,29.7c0-3.8,3.1-6.9,7-6.9h0.3c3.8,0,7,3.1,7,6.9v2.5c-4.4,2.5-9.8,2.5-14.2,0
	L12.9,29.7L12.9,29.7z M22.9,21.1c1.6-1,2.6-2.8,2.6-4.6c0-3-2.5-5.5-5.5-5.5s-5.5,2.5-5.5,5.5c0,1.9,1,3.6,2.6,4.6
	c-3.7,1.2-6.3,4.6-6.3,8.6v1.1c-3.2-2.7-5-6.6-5-10.8c0-7.8,6.4-14.1,14.2-14.1S34.2,12.2,34.2,20c0,4.1-1.8,8-5,10.8v-1.1
	C29.2,25.8,26.6,22.3,22.9,21.1z"/>
</svg>
