<?xml version="1.0" encoding="utf-8"?>
<!-- Generator: Adobe Illustrator 22.1.0, SVG Export Plug-In . SVG Version: 6.00 Build 0)  -->
<svg version="1.1" id="Capa_1" xmlns="http://www.w3.org/2000/svg" xmlns:xlink="http://www.w3.org/1999/xlink" x="0px" y="0px"
	 viewBox="0 0 50 50" style="enable-background:new 0 0 50 50;" xml:space="preserve">
<style type="text/css">
	.st0{fill:#FFFFFF;}
</style>
<path class="st0" d="M25,8.8C16,8.8,8.8,16,8.8,25S16,41.2,25,41.2S41.2,34,41.2,25S34,8.8,25,8.8z M25,18c1.9,0,3.5,1.6,3.5,3.5
	S26.9,25,25,25s-3.5-1.6-3.5-3.5S23.1,18,25,18z M17.9,34.7c0-3.8,3.1-6.9,7-6.9h0.3c3.8,0,7,3.1,7,6.9v2.5c-4.4,2.5-9.8,2.5-14.2,0
	L17.9,34.7L17.9,34.7z M27.9,26.1c1.6-1,2.6-2.8,2.6-4.6c0-3-2.5-5.5-5.5-5.5s-5.5,2.5-5.5,5.5c0,1.9,1,3.6,2.6,4.6
	c-3.7,1.2-6.3,4.6-6.3,8.6v1.1c-3.2-2.7-5-6.6-5-10.8c0-7.8,6.4-14.1,14.2-14.1S39.2,17.2,39.2,25c0,4.1-1.8,8-5,10.8v-1.1
	C34.2,30.8,31.6,27.3,27.9,26.1z"/>
</svg>
